<svg width="24" height="23" viewBox="0 0 24 23" fill="none" xmlns="http://www.w3.org/2000/svg">
<path d="M4.50562 22.2793C4.90405 22.5698 5.3855 22.4785 5.97485 22.0469L11.7522 17.8135L17.5295 22.0469C18.1189 22.4785 18.6086 22.5698 18.9988 22.2793C19.3806 21.9888 19.4719 21.5073 19.2395 20.8101L16.9734 14.02L22.7922 9.83643C23.3816 9.41309 23.614 8.97314 23.4563 8.5083C23.3069 8.06006 22.8752 7.81934 22.1282 7.82764L14.9895 7.86914L12.8064 1.0542C12.5823 0.348633 12.2336 0 11.7522 0C11.2708 0 10.9221 0.348633 10.698 1.0542L8.51489 7.86914L1.37622 7.82764C0.637451 7.81934 0.19751 8.06006 0.0480956 8.5083C-0.109619 8.97314 0.122803 9.41309 0.712158 9.83643L6.53101 14.02L4.27319 20.8101C4.03247 21.5073 4.12378 21.9888 4.50562 22.2793Z" fill="#8E8E93"/>
</svg>
