<svg width="355" height="310" viewBox="0 0 355 310" fill="none" xmlns="http://www.w3.org/2000/svg">
<g opacity="0.4">
<path d="M26.6207 136.236C26.25 134.853 25.9803 133.845 25.8335 133.033C25.6878 132.227 25.6723 131.66 25.7837 131.155C25.9834 130.251 26.4573 129.43 27.1407 128.805C27.522 128.456 28.0215 128.185 28.792 127.909C29.5681 127.63 30.576 127.36 31.9593 126.989L287.485 58.5212C288.868 58.1505 289.876 57.8808 290.688 57.734C291.494 57.5883 292.061 57.5728 292.566 57.6842C293.47 57.8839 294.291 58.3578 294.916 59.0412C295.265 59.4225 295.535 59.922 295.812 60.6925C296.091 61.4686 296.361 62.4765 296.732 63.8598L340.438 226.973C340.809 228.356 341.078 229.364 341.225 230.176C341.371 230.981 341.386 231.549 341.275 232.054C341.075 232.958 340.601 233.779 339.918 234.404C339.537 234.753 339.037 235.023 338.267 235.3C337.49 235.579 336.483 235.849 335.099 236.22L79.5735 304.688C78.1902 305.058 77.1821 305.328 76.3706 305.475C75.565 305.62 74.9972 305.636 74.4926 305.525C73.5882 305.325 72.7675 304.851 72.1423 304.168C71.7935 303.786 71.523 303.287 71.2464 302.516C70.9678 301.74 70.6973 300.732 70.3267 299.349L26.6207 136.236Z" fill="#2C2C2E" stroke="#2C2C2E"/>
<path d="M12.4238 83.2526C12.0532 81.8693 11.7835 80.8612 11.6367 80.0497C11.491 79.2442 11.4755 78.6763 11.5869 78.1717C11.7866 77.2673 12.2604 76.4466 12.9438 75.8215C13.3251 75.4727 13.8246 75.2022 14.5951 74.9256C15.3713 74.6469 16.3792 74.3765 17.7625 74.0058L273.288 5.53788C274.672 5.16721 275.68 4.89753 276.491 4.75074C277.297 4.60503 277.865 4.58956 278.369 4.70097C279.273 4.90064 280.094 5.3745 280.719 6.05789C281.068 6.43919 281.339 6.93868 281.615 7.7092C281.894 8.48536 282.164 9.49321 282.535 10.8765L289.924 38.451C290.294 39.8344 290.564 40.8424 290.711 41.6539C290.856 42.4595 290.872 43.0273 290.761 43.5319C290.561 44.4363 290.087 45.2571 289.404 45.8822C289.022 46.231 288.523 46.5015 287.752 46.7781C286.976 47.0567 285.968 47.3272 284.585 47.6979L29.0592 116.166C27.6759 116.536 26.6678 116.806 25.8563 116.953C25.0507 117.099 24.4829 117.114 23.9783 117.003C23.0739 116.803 22.2532 116.329 21.628 115.646C21.2793 115.264 21.0087 114.765 20.7321 113.994C20.4535 113.218 20.183 112.21 19.8124 110.827L12.4238 83.2526Z" fill="#2C2C2E" stroke="#2C2C2E"/>
<ellipse cx="29.4339" cy="126.488" rx="15.9454" ry="15.9454" transform="rotate(-15 29.4339 126.488)" fill="#48484A"/>
<mask id="mask0_18_484" style="mask-type:alpha" maskUnits="userSpaceOnUse" x="11" y="4" width="281" height="114">
<path d="M12.4238 83.2526C12.0532 81.8693 11.7835 80.8612 11.6367 80.0497C11.491 79.2442 11.4755 78.6763 11.5869 78.1717C11.7866 77.2673 12.2604 76.4466 12.9438 75.8215C13.3251 75.4727 13.8246 75.2022 14.5951 74.9256C15.3713 74.6469 16.3792 74.3765 17.7625 74.0058L273.288 5.53788C274.672 5.16721 275.68 4.89753 276.491 4.75074C277.297 4.60503 277.865 4.58956 278.369 4.70097C279.273 4.90064 280.094 5.3745 280.719 6.05789C281.068 6.43919 281.339 6.93868 281.615 7.7092C281.894 8.48536 282.164 9.49321 282.535 10.8765L289.924 38.451C290.294 39.8344 290.564 40.8424 290.711 41.6539C290.856 42.4595 290.872 43.0273 290.761 43.5319C290.561 44.4363 290.087 45.2571 289.404 45.8822C289.022 46.231 288.523 46.5015 287.752 46.7781C286.976 47.0567 285.968 47.3272 284.585 47.6979L29.0592 116.166C27.6759 116.536 26.6678 116.806 25.8563 116.953C25.0507 117.099 24.4829 117.114 23.9783 117.003C23.0739 116.803 22.2532 116.329 21.628 115.646C21.2793 115.264 21.0087 114.765 20.7321 113.994C20.4535 113.218 20.183 112.21 19.8124 110.827L12.4238 83.2526Z" fill="#2C2C2E" stroke="#2C2C2E"/>
</mask>
<g mask="url(#mask0_18_484)">
<path fill-rule="evenodd" clip-rule="evenodd" d="M303.898 42.8672L200.174 -9.72549L185.12 19.9654L288.843 72.558L303.898 42.8672ZM119.512 14.5293L219.277 65.1153L204.223 94.8061L104.457 44.2202L119.512 14.5293ZM38.8488 38.7841L138.614 89.3701L123.56 119.061L23.7941 68.475L38.8488 38.7841Z" fill="#48484A"/>
</g>
<mask id="mask1_18_484" style="mask-type:alpha" maskUnits="userSpaceOnUse" x="36" y="54" width="281" height="114">
<path d="M307.821 60.8884C307.451 59.5051 307.18 58.4972 306.902 57.721C306.625 56.9505 306.354 56.451 306.006 56.0697C305.381 55.3864 304.56 54.9125 303.655 54.7128C303.151 54.6014 302.583 54.6169 301.777 54.7626C300.966 54.9094 299.958 55.1791 298.575 55.5497L43.0488 124.018C41.6655 124.388 40.6576 124.659 39.8815 124.937C39.1109 125.214 38.6114 125.485 38.2302 125.833C37.5468 126.458 37.0729 127.279 36.8732 128.184C36.7618 128.688 36.7773 129.256 36.923 130.062C37.0698 130.873 37.3395 131.881 37.7101 133.264L45.0987 160.839C45.4694 162.222 45.7398 163.23 46.0185 164.006C46.2951 164.777 46.5656 165.276 46.9144 165.658C47.5395 166.341 48.3602 166.815 49.2646 167.015C49.7692 167.126 50.3371 167.11 51.1427 166.965C51.9542 166.818 52.9622 166.548 54.3455 166.178L309.871 97.7097C311.255 97.3391 312.262 97.0686 313.039 96.79C313.809 96.5134 314.309 96.2428 314.69 95.8941C315.373 95.2689 315.847 94.4482 316.047 93.5438C316.158 93.0392 316.143 92.4714 315.997 91.6658C315.85 90.8543 315.581 89.8462 315.21 88.4629L307.821 60.8884Z" fill="#2C2C2E" stroke="#2C2C2E"/>
</mask>
<g mask="url(#mask1_18_484)">
<path fill-rule="evenodd" clip-rule="evenodd" d="M35.2048 171.651L98.7355 74.2423L126.619 92.428L63.088 189.836L35.2048 171.651ZM180.719 54.9162L119.612 148.608L147.495 166.793L208.602 73.1019L180.719 54.9162ZM262.702 35.5901L201.596 129.282L229.479 147.467L290.586 53.7758L262.702 35.5901Z" fill="#48484A"/>
</g>
</g>
</svg>
