<svg width="39" height="23" viewBox="0 0 39 23" fill="none" xmlns="http://www.w3.org/2000/svg">
<path d="M37.5465 10.1089L38.3569 9.52294L37.5465 10.1089ZM37.5465 12.8911L36.7362 12.3051L37.5465 12.8911ZM1.45345 10.1089L2.26378 10.6949L1.45345 10.1089ZM1.45345 12.8911L2.26378 12.3051L1.45345 12.8911ZM2.26378 10.6949C6.06206 5.44235 12.361 2 19.5 2V0C11.7079 0 4.81079 3.75958 0.643122 9.52296L2.26378 10.6949ZM19.5 2C26.639 2 32.9379 5.44234 36.7362 10.6949L38.3569 9.52294C34.1892 3.75958 27.2921 0 19.5 0V2ZM36.7362 12.3051C32.9379 17.5576 26.639 21 19.5 21V23C27.2921 23 34.1892 19.2404 38.3569 13.477L36.7362 12.3051ZM19.5 21C12.361 21 6.06206 17.5577 2.26378 12.3051L0.643124 13.4771C4.81079 19.2404 11.7079 23 19.5 23V21ZM36.7362 10.6949C37.0879 11.1813 37.0879 11.8187 36.7362 12.3051L38.3569 13.477C39.2144 12.2912 39.2144 10.7088 38.3569 9.52294L36.7362 10.6949ZM0.643122 9.52296C-0.214374 10.7088 -0.214374 12.2912 0.643124 13.4771L2.26378 12.3051C1.91207 11.8187 1.91207 11.1813 2.26378 10.6949L0.643122 9.52296ZM24.6378 11.5C24.6378 14.3981 22.2054 16.8 19.139 16.8V18.8C23.2509 18.8 26.6378 15.5607 26.6378 11.5H24.6378ZM19.139 16.8C16.0725 16.8 13.6401 14.3981 13.6401 11.5H11.6401C11.6401 15.5607 15.027 18.8 19.139 18.8V16.8ZM13.6401 11.5C13.6401 8.60195 16.0725 6.2 19.139 6.2V4.2C15.027 4.2 11.6401 7.43926 11.6401 11.5H13.6401ZM19.139 6.2C22.2054 6.2 24.6378 8.60195 24.6378 11.5H26.6378C26.6378 7.43926 23.2509 4.2 19.139 4.2V6.2Z" fill="#8E8E93"/>
</svg>
