<svg width="20" height="5" viewBox="0 0 20 5" fill="none" xmlns="http://www.w3.org/2000/svg">
<path d="M0.712656 2.14844C0.712656 1.58594 0.915781 1.11719 1.32203 0.742188C1.72828 0.359375 2.25172 0.167969 2.89234 0.167969C3.54078 0.167969 4.06422 0.359375 4.46266 0.742188C4.86891 1.11719 5.07203 1.58594 5.07203 2.14844C5.07203 2.71094 4.86891 3.18359 4.46266 3.56641C4.06422 3.94141 3.54078 4.12891 2.89234 4.12891C2.25172 4.12891 1.72828 3.94141 1.32203 3.56641C0.915781 3.18359 0.712656 2.71094 0.712656 2.14844ZM7.73828 2.14844C7.73828 1.58594 7.94141 1.11719 8.34766 0.742188C8.75391 0.359375 9.27734 0.167969 9.91797 0.167969C10.5664 0.167969 11.0898 0.359375 11.4883 0.742188C11.8945 1.11719 12.0977 1.58594 12.0977 2.14844C12.0977 2.71094 11.8945 3.18359 11.4883 3.56641C11.0898 3.94141 10.5664 4.12891 9.91797 4.12891C9.27734 4.12891 8.75391 3.94141 8.34766 3.56641C7.94141 3.18359 7.73828 2.71094 7.73828 2.14844ZM14.7639 2.14844C14.7639 1.58594 14.967 1.11719 15.3733 0.742188C15.7795 0.359375 16.303 0.167969 16.9436 0.167969C17.592 0.167969 18.1155 0.359375 18.5139 0.742188C18.9202 1.11719 19.1233 1.58594 19.1233 2.14844C19.1233 2.71094 18.9202 3.18359 18.5139 3.56641C18.1155 3.94141 17.592 4.12891 16.9436 4.12891C16.303 4.12891 15.7795 3.94141 15.3733 3.56641C14.967 3.18359 14.7639 2.71094 14.7639 2.14844Z" fill="#C01D13"/>
</svg>
